<svg width="133" height="119" viewBox="0 0 133 119" fill="none" xmlns="http://www.w3.org/2000/svg">
<g clip-path="url(#clip0)">
<path d="M130.818 56.4389L100.267 27.2837C98.3891 25.4899 95.2548 25.408 93.2633 27.1008C91.2748 28.7921 91.1825 31.6168 93.0617 33.4092L120.404 59.5001L93.0617 85.594C91.1825 87.3865 91.2748 90.2097 93.2633 91.9025C94.2211 92.7162 95.4447 93.1192 96.6636 93.1192C97.9799 93.1192 99.2943 92.6493 100.267 91.7224L130.818 62.5658C132.62 60.8449 132.62 58.1583 130.818 56.4389Z" fill="#E5E5E5"/>
<path d="M39.1093 85.5926L11.7684 59.5001L39.1093 33.4078C40.987 31.6154 40.8961 28.7905 38.9062 27.0994C36.9178 25.408 33.7801 25.4899 31.9026 27.2823L1.35132 56.4375C-0.450277 58.157 -0.450277 60.8449 1.35132 62.5646L31.9042 91.7212C32.8785 92.6509 34.1914 93.1194 35.5076 93.1194C36.7263 93.1194 37.9502 92.7148 38.9062 91.9011C40.898 90.2097 40.987 87.3851 39.1093 85.5926Z" fill="#E5E5E5"/>
<path d="M74.0999 12.248C71.3965 11.8791 68.8664 13.551 68.4536 15.9861L53.9211 101.667C53.5082 104.103 55.3661 106.381 58.071 106.752C58.3255 106.787 58.5763 106.803 58.8258 106.803C61.232 106.803 63.3424 105.222 63.7174 103.014L78.2499 17.3339C78.6627 14.8972 76.8049 12.6199 74.0999 12.248Z" fill="#E5E5E5"/>
</g>
<defs>
<clipPath id="clip0">
<rect width="132.113" height="119" fill="white"/>
</clipPath>
</defs>
</svg>
