<svg width="66" height="66" viewBox="0 0 66 66" fill="none" xmlns="http://www.w3.org/2000/svg">
<rect width="65.6337" height="65.6337" rx="8" fill="#FCA311"/>
<g clip-path="url(#clip0)">
<path d="M32.2789 10.6476C19.7951 10.6476 9.68372 20.8262 9.68372 33.3798C9.68372 43.4254 16.1572 51.9442 25.1332 54.9477C26.263 55.1617 26.6772 54.458 26.6772 53.8546C26.6772 53.3149 26.6584 51.8845 26.649 49.9895C20.3637 51.3601 19.0381 46.9397 19.0381 46.9397C18.0101 44.316 16.5244 43.6143 16.5244 43.6143C14.4777 42.2051 16.6826 42.2341 16.6826 42.2341C18.9515 42.3921 20.1434 44.5763 20.1434 44.5763C22.1582 48.0521 25.4326 47.0477 26.7243 46.4674C26.9276 44.9965 27.5095 43.996 28.1553 43.4273C23.1373 42.8587 17.8632 40.9039 17.8632 32.1943C17.8632 29.7132 18.7387 27.6852 20.1886 26.0948C19.9344 25.5203 19.1718 23.2089 20.3863 20.0782C20.3863 20.0782 22.2787 19.4691 26.6 22.4089C28.4076 21.9038 30.3282 21.6532 32.2488 21.6417C34.1694 21.6532 36.09 21.9038 37.8976 22.4089C42.1907 19.4691 44.083 20.0782 44.083 20.0782C45.2975 23.2089 44.535 25.5203 44.309 26.0948C45.7494 27.6852 46.625 29.7132 46.625 32.1943C46.625 40.927 41.3434 42.849 36.3159 43.4081C37.1068 44.0905 37.8411 45.4843 37.8411 47.6145C37.8411 50.6565 37.8129 53.1009 37.8129 53.8392C37.8129 54.4349 38.2083 55.1462 39.3663 54.9188C48.4063 51.9346 54.8741 43.41 54.8741 33.3798C54.8741 20.8262 44.7571 10.6476 32.2789 10.6476V10.6476Z" fill="#14213D"/>
</g>
<defs>
<clipPath id="clip0">
<rect x="9.68372" y="9.68372" width="45.1904" height="46.2664" rx="8" fill="white"/>
</clipPath>
</defs>
</svg>
