<svg width="66" height="66" viewBox="0 0 66 66" fill="none" xmlns="http://www.w3.org/2000/svg">
<rect y="0.366333" width="65.6337" height="65.6337" rx="8" fill="#FCA311"/>
<path d="M32.5 12C20.0755 12 10 21.8516 10 34C10 46.1484 20.0755 56 32.5 56C44.9245 56 55 46.1484 55 34C55 21.8516 44.9245 12 32.5 12ZM25.9618 45.2578H20.482V29.1382H25.9618V45.2578ZM23.222 26.937H23.1863C21.3475 26.937 20.1582 25.6993 20.1582 24.1524C20.1582 22.5706 21.3839 21.3672 23.2584 21.3672C25.133 21.3672 26.2865 22.5706 26.3223 24.1524C26.3223 25.6993 25.133 26.937 23.222 26.937ZM45.7207 45.2578H40.2416V36.6342C40.2416 34.4669 39.4482 32.9889 37.4655 32.9889C35.9518 32.9889 35.0502 33.9859 34.654 34.9483C34.5091 35.2928 34.4738 35.7741 34.4738 36.2559V45.2578H28.9943C28.9943 45.2578 29.0661 30.6505 28.9943 29.1382H34.4738V31.4205C35.202 30.3221 36.5049 28.7598 39.4121 28.7598C43.0173 28.7598 45.7207 31.0637 45.7207 36.0148V45.2578Z" fill="#14213D"/>
</svg>
