<svg width="381" height="381" viewBox="0 0 381 381" fill="none" xmlns="http://www.w3.org/2000/svg">
<g clip-path="url(#clip0)">
<path d="M157.952 290.395L113.057 335.29C94.4446 353.903 64.3031 353.903 45.7061 335.294C27.1055 316.693 27.1055 286.549 45.7024 267.952L135.508 178.146C154.105 159.548 184.25 159.548 202.846 178.146C209.046 184.346 219.098 184.346 225.297 178.146C231.497 171.947 231.497 161.895 225.297 155.695C194.301 124.699 144.054 124.699 113.057 155.695L23.2523 245.5C-7.74432 276.497 -7.74432 326.744 23.2523 357.74C54.2452 388.753 104.496 388.753 135.509 357.74L180.404 312.845C186.603 306.646 186.603 296.594 180.404 290.394C174.204 284.195 164.152 284.196 157.952 290.395Z" fill="#FCA311"/>
<path d="M357.748 23.247C326.752 -7.74964 276.489 -7.74964 245.492 23.247L191.628 77.1112C185.428 83.3106 185.428 93.3625 191.628 99.562C197.827 105.761 207.879 105.761 214.079 99.562L267.943 45.6978C286.54 27.1002 316.7 27.1002 335.298 45.6978C353.894 64.2947 353.894 94.4393 335.298 113.036L236.523 211.812C217.925 230.409 187.781 230.409 169.184 211.812C162.985 205.612 152.933 205.612 146.733 211.812C140.534 218.011 140.534 228.063 146.733 234.263C177.73 265.259 227.977 265.259 258.974 234.263L357.748 135.488C388.745 104.491 388.745 54.2436 357.748 23.247Z" fill="#FCA311"/>
</g>
<defs>
<clipPath id="clip0">
<rect width="381" height="381" fill="white"/>
</clipPath>
</defs>
</svg>
